<svg width="128" height="128" viewBox="0 0 128 128" fill="none" xmlns="http://www.w3.org/2000/svg">
  <path d="M77.2468 81.7729C75.8116 83.0776 73.8872 84.1214 71.4735 84.9042C69.125 85.6218 66.5482 85.9806 63.7431 85.9806C59.1114 85.9806 54.969 85.0021 51.3158 83.045C47.6627 81.0879 44.7923 78.185 42.7048 74.3361C40.6173 70.4872 39.5735 65.7251 39.5735 60.0496C39.5735 54.3089 40.6173 49.4489 42.7048 45.4695C44.7923 41.425 47.5974 38.3589 51.1201 36.2714C54.7081 34.1186 58.6874 33.0422 63.0582 33.0422C66.5156 33.0422 69.7774 33.5315 72.8434 34.51C75.9747 35.4886 78.1601 36.9237 79.3996 38.8156V34.3143H84.0965V50.5579C82.2047 46.709 80.0845 43.9039 77.7361 42.1425C75.4528 40.316 73.0391 39.1417 70.495 38.6199C68.016 38.0327 65.5371 37.7392 63.0582 37.7392C57.0565 37.7392 52.4248 39.7289 49.1631 43.7082C45.9013 47.6223 44.2704 53.0694 44.2704 60.0496C44.2704 66.9645 46.097 72.2486 49.7502 75.9018C53.4686 79.4897 58.1329 81.2836 63.7431 81.2836C65.5697 81.2836 67.3963 81.1532 69.2229 80.8922C71.1147 80.5661 73.0718 79.8485 75.094 78.7395C77.1816 77.5652 79.4648 75.6734 81.9437 73.064V85.2956C81.9437 88.0355 81.4545 90.4818 80.4759 92.6346C79.4974 94.7873 77.6056 96.4508 74.8005 97.6251C71.9954 98.8645 67.8856 99.4843 62.471 99.4843C60.1878 99.4843 57.3501 99.2886 53.9578 98.8971C50.5656 98.5057 47.206 97.9839 43.879 97.3315L34.3259 95.5195V90.384L42.5091 92.1942C44.4014 92.665 47.6014 93.1652 48.8695 93.4174C50.1377 93.6696 53.5752 94.2056 56.2085 94.3959C58.6874 94.6569 60.7749 94.7873 62.471 94.7873C66.4504 94.7873 69.4838 94.3959 71.5713 93.6131C73.7241 92.8955 75.1919 91.8191 75.9747 90.384C76.8228 89.014 77.2468 87.3179 77.2468 85.2956V81.7729ZM93.6861 24.5291V86.1763C93.6861 91.1342 92.6749 95.2766 90.6526 98.6036C88.6956 101.996 85.4664 104.507 80.9652 106.138C76.5292 107.834 70.5602 108.682 63.0582 108.682C59.8616 108.682 56.6977 108.519 53.5664 108.193C50.4351 107.867 48.0867 107.573 46.521 107.312L45.1511 102.224C48.4129 102.876 51.5441 103.333 54.545 103.594C57.611 103.855 60.4487 103.985 63.0582 103.985C72.3868 103.985 79.0408 102.55 83.0201 99.68C86.9995 96.8096 88.9891 92.3084 88.9891 86.1763V24.5291H93.6861ZM81.9437 63.768C81.9437 66.3122 81.2914 68.6606 79.9867 70.8134C78.682 72.9009 76.9206 74.5644 74.7026 75.8039C72.4846 77.0434 70.0383 77.6631 67.3637 77.6631C62.8624 77.6631 59.1114 76.2932 56.1106 73.5533C53.175 70.7482 51.7072 66.2796 51.7072 60.1475C51.7072 54.1458 53.175 49.7751 56.1106 47.0352C59.1114 44.2953 62.7972 42.9254 67.168 42.9254C70.7559 42.9254 73.7567 43.8713 76.1704 45.7631C78.6494 47.5897 80.5738 50.1339 81.9437 53.3956V63.768ZM77.2468 54.2763C76.3987 52.254 75.1267 50.6557 73.4305 49.4815C71.7344 48.242 69.6469 47.6223 67.168 47.6223C63.9714 47.6223 61.362 48.6334 59.3397 50.6557C57.3827 52.678 56.4042 55.8419 56.4042 60.1475C56.4042 64.5182 57.4153 67.7473 59.4376 69.8349C61.4599 71.9224 64.1019 72.9662 67.3637 72.9662C70.0383 72.9662 72.3542 72.1507 74.3112 70.5199C76.2683 68.8237 77.2468 66.5731 77.2468 63.768V54.2763Z" fill="black"/>
  <path d="M34.3259 90.384L42.5091 92.1942C38.3065 91.2645 37.923 91.1797 34.3259 90.384Z" fill="black"/>
  <path fill-rule="evenodd" clip-rule="evenodd" d="M91.3866 20L100.109 28.7228L97.3417 31.4905L91.3866 25.5354L85.4315 31.4905L82.6638 28.7228L91.3866 20Z" fill="black"/>
  <path fill-rule="evenodd" clip-rule="evenodd" d="M29.4814 92.1244L39.5589 85.0097L41.8164 88.2072L34.9364 93.0645L39.7936 99.9444L36.5961 102.202L29.4814 92.1244Z" fill="black"/>
</svg>

