<svg width="32" height="32" viewBox="0 0 32 32" fill="none" xmlns="http://www.w3.org/2000/svg">
  <rect width="32" height="32" rx="2" fill="black" />
  <path
    d="M18.46 18.56C18.1667 18.8267 17.7733 19.04 17.28 19.2C16.8 19.3467 16.2733 19.42 15.7 19.42C14.7533 19.42 13.9067 19.22 13.16 18.82C12.4133 18.42 11.8267 17.8267 11.4 17.04C10.9733 16.2533 10.76 15.28 10.76 14.12C10.76 12.9467 10.9733 11.9533 11.4 11.14C11.8267 10.3133 12.4 9.68667 13.12 9.26C13.8533 8.82 14.6667 8.6 15.56 8.6C16.2667 8.6 16.9333 8.7 17.56 8.9C18.2 9.1 18.6467 9.39333 18.9 9.78V8.86H19.86V12.18C19.4733 11.3933 19.04 10.82 18.56 10.46C18.0933 10.0867 17.6 9.84667 17.08 9.74C16.5733 9.62 16.0667 9.56 15.56 9.56C14.3333 9.56 13.3867 9.96667 12.72 10.78C12.0533 11.58 11.72 12.6933 11.72 14.12C11.72 15.5333 12.0933 16.6133 12.84 17.36C13.6 18.0933 14.5533 18.46 15.7 18.46C16.0733 18.46 16.4467 18.4333 16.82 18.38C17.2067 18.3133 17.6067 18.1667 18.02 17.94C18.4467 17.7 18.9133 17.3133 19.42 16.78V19.28C19.42 19.84 19.32 20.34 19.12 20.78C18.92 21.22 18.5333 21.56 17.96 21.8C17.3867 22.0533 16.5467 22.18 15.44 22.18C14.9733 22.18 14.3933 22.14 13.7 22.06C13.0067 21.98 12.32 21.8733 11.64 21.74L11.36 20.69C11.7468 20.7862 12.4008 20.8885 12.66 20.94C12.9192 20.9916 13.6218 21.1011 14.16 21.14C14.6667 21.1933 15.0933 21.22 15.44 21.22C16.2533 21.22 16.8733 21.14 17.3 20.98C17.74 20.8333 18.04 20.6133 18.2 20.32C18.3733 20.04 18.46 19.6933 18.46 19.28V18.56ZM21.82 6.86V19.46C21.82 20.4733 21.6133 21.32 21.2 22C20.8 22.6933 20.14 23.2067 19.22 23.54C18.3133 23.8867 17.0933 24.06 15.56 24.06C14.9067 24.06 14.26 24.0267 13.62 23.96C12.98 23.8933 12.5 23.8333 12.18 23.78L11.9 22.74C12.5667 22.8733 13.2067 22.9667 13.82 23.02C14.4467 23.0733 15.0267 23.1 15.56 23.1C17.4667 23.1 18.8267 22.8067 19.64 22.22C20.4533 21.6333 20.86 20.7133 20.86 19.46V6.86H21.82ZM19.42 14.88C19.42 15.4 19.2867 15.88 19.02 16.32C18.7533 16.7467 18.3933 17.0867 17.94 17.34C17.4867 17.5933 16.9867 17.72 16.44 17.72C15.52 17.72 14.7533 17.44 14.14 16.88C13.54 16.3067 13.24 15.3933 13.24 14.14C13.24 12.9133 13.54 12.02 14.14 11.46C14.7533 10.9 15.5067 10.62 16.4 10.62C17.1333 10.62 17.7467 10.8133 18.24 11.2C18.7467 11.5733 19.14 12.0933 19.42 12.76V14.88ZM18.46 12.94C18.2867 12.5267 18.0267 12.2 17.68 11.96C17.3333 11.7067 16.9067 11.58 16.4 11.58C15.7467 11.58 15.2133 11.7867 14.8 12.2C14.4 12.6133 14.2 13.26 14.2 14.14C14.2 15.0333 14.4067 15.6933 14.82 16.12C15.2333 16.5467 15.7733 16.76 16.44 16.76C16.9867 16.76 17.46 16.5933 17.86 16.26C18.26 15.9133 18.46 15.4533 18.46 14.88V12.94Z"
    fill="white"
  />
  <path d="M11.64 21.74L11.36 20.69C10.5 20.53 10.3683 20.5202 9.68744 20.32V21.3696L11.64 21.74Z" fill="white" />
  <path d="M19.85 8L21.35 6.5L22.85 8" stroke="white" stroke-width="0.8" />
  <path d="M10.4782 22.5047L9.25475 20.7718L10.9877 19.5483" stroke="white" stroke-width="0.8" />
</svg>
