<svg width="128" height="128" fill="none" xmlns="http://www.w3.org/2000/svg">
  <path d="M0 8a8 8 0 0 1 8-8h112a8 8 0 0 1 8 8v112a8 8 0 0 1-8 8H8a8 8 0 0 1-8-8V8Z" fill="#000"/>
  <path d="M73.84 74.24c-1.173 1.067-2.747 1.92-4.72 2.56-1.92.587-4.027.88-6.32.88-3.787 0-7.173-.8-10.16-2.4-2.987-1.6-5.333-3.973-7.04-7.12-1.707-3.147-2.56-7.04-2.56-11.68 0-4.693.853-8.667 2.56-11.92 1.707-3.307 4-5.813 6.88-7.52 2.933-1.76 6.187-2.64 9.76-2.64 2.827 0 5.493.4 8 1.2 2.56.8 4.347 1.973 5.36 3.52v-3.68h3.84v13.28c-1.547-3.147-3.28-5.44-5.2-6.88-1.867-1.493-3.84-2.453-5.92-2.88a26.302 26.302 0 0 0-6.08-.72c-4.907 0-8.693 1.627-11.36 4.88-2.667 3.2-4 7.653-4 13.36 0 5.653 1.493 9.973 4.48 12.96 3.04 2.933 6.853 4.4 11.44 4.4 1.493 0 2.987-.107 4.48-.32 1.547-.267 3.147-.853 4.8-1.76 1.707-.96 3.573-2.507 5.6-4.64v10c0 2.24-.4 4.24-1.2 6-.8 1.76-2.347 3.12-4.64 4.08-2.293 1.013-5.653 1.52-10.08 1.52-1.867 0-4.187-.16-6.96-.48-2.773-.32-5.52-.747-8.24-1.28l-7.81-1.481V81.28l6.69 1.48c1.547.385 4.163.794 5.2 1 1.037.206 3.847.644 6 .8 2.027.213 3.733.32 5.12.32 3.253 0 5.733-.32 7.44-.96 1.76-.587 2.96-1.467 3.6-2.64.693-1.12 1.04-2.507 1.04-4.16v-2.88Zm13.44-46.8v50.4c0 4.053-.827 7.44-2.48 10.16-1.6 2.773-4.24 4.827-7.92 6.16-3.627 1.387-8.507 2.08-14.64 2.08-2.613 0-5.2-.133-7.76-.4-2.56-.267-4.48-.507-5.76-.72l-1.12-4.16a70.27 70.27 0 0 0 7.68 1.12c2.507.213 4.827.32 6.96.32 7.627 0 13.067-1.173 16.32-3.52s4.88-6.027 4.88-11.04v-50.4h3.84Zm-9.6 32.08c0 2.08-.533 4-1.6 5.76-1.067 1.707-2.507 3.067-4.32 4.08-1.813 1.013-3.813 1.52-6 1.52-3.68 0-6.747-1.12-9.2-3.36-2.4-2.293-3.6-5.947-3.6-10.96 0-4.907 1.2-8.48 3.6-10.72 2.453-2.24 5.467-3.36 9.04-3.36 2.933 0 5.387.773 7.36 2.32 2.027 1.493 3.6 3.573 4.72 6.24v8.48Zm-3.84-7.76c-.693-1.653-1.733-2.96-3.12-3.92-1.387-1.013-3.093-1.52-5.12-1.52-2.613 0-4.747.827-6.4 2.48-1.6 1.653-2.4 4.24-2.4 7.76 0 3.573.827 6.213 2.48 7.92 1.653 1.707 3.813 2.56 6.48 2.56 2.187 0 4.08-.667 5.68-2 1.6-1.387 2.4-3.227 2.4-5.52v-7.76ZM38.75 81.28l6.69 1.48-6.69-1.48Z" fill="#fff"/>
  <path fill-rule="evenodd" clip-rule="evenodd" d="m85.4 23.737 7.131 7.132-2.262 2.262-4.869-4.868-4.869 4.868-2.262-2.262 7.131-7.132ZM34.79 82.703l8.238-5.817 1.846 2.615-5.625 3.97 3.97 5.625-2.613 1.846-5.817-8.24Z" fill="#fff"/>
</svg>
